HIERARCHY
ROOT Hips
{
	OFFSET -0.179506 -22.333345 2.821913
	CHANNELS 6 Xposition Yposition Zposition Zrotation Yrotation Xrotation 
	JOINT LeftUpLeg
	{
		OFFSET 6.951974 -9.140623 -0.681533
		CHANNELS 3 Zrotation Yrotation Xrotation
		JOINT LeftLeg
		{
			OFFSET 3.427654 -37.519855 -0.449580
			CHANNELS 3 Zrotation Yrotation Xrotation
			JOINT LeftFoot
			{
				OFFSET -1.359570 -39.796059 -4.369333
				CHANNELS 3 Zrotation Yrotation Xrotation
				JOINT LeftToe
				{
					OFFSET 2.635814 -5.579078 11.928840
					CHANNELS 3 Zrotation Yrotation Xrotation
					End Site
					{
						OFFSET 0.000000 0.000000 0.000000
					}
				}
			}
		}
	}
	JOINT RightUpLeg
	{
		OFFSET -6.767048 -9.052170 -0.431982
		CHANNELS 3 Zrotation Yrotation Xrotation
		JOINT RightLeg
		{
			OFFSET -3.829005 -38.256897 -0.885003
			CHANNELS 3 Zrotation Yrotation Xrotation
			JOINT RightFoot
			{
				OFFSET 1.577377 -39.841461 -4.231180
				CHANNELS 3 Zrotation Yrotation Xrotation
				JOINT RightToe
				{
					OFFSET -2.537174 -4.814398 12.334795
					CHANNELS 3 Zrotation Yrotation Xrotation
					End Site
					{
						OFFSET 0.000000 0.000000 0.000000
					}
				}
			}
		}
	}
	JOINT Spine
	{
		OFFSET -0.253288 10.896323 -2.669631
		CHANNELS 3 Zrotation Yrotation Xrotation
		JOINT Spine1
		{
			OFFSET 0.548704 13.518043 0.109247
			CHANNELS 3 Zrotation Yrotation Xrotation
			JOINT Spine2
			{
				OFFSET 0.145701 5.292222 2.542457
				CHANNELS 3 Zrotation Yrotation Xrotation
				JOINT Neck
				{
					OFFSET -0.277840 21.387037 -4.285703
					CHANNELS 3 Zrotation Yrotation Xrotation
					JOINT Head
					{
						OFFSET 0.515184 6.496960 5.134897
						CHANNELS 3 Zrotation Yrotation Xrotation
						End Site
						{
							OFFSET 0.000000 0.000000 0.000000
						}
					}
				}
				JOINT LeftShoulder
				{
					OFFSET 7.884473 12.174932 -3.408961
					CHANNELS 3 Zrotation Yrotation Xrotation
					JOINT LeftArm
					{
						OFFSET 9.097692 3.046888 -0.886815
						CHANNELS 3 Zrotation Yrotation Xrotation
						JOINT LeftForeArm
						{
							OFFSET 25.961220 -1.277207 -2.745643
							CHANNELS 3 Zrotation Yrotation Xrotation
							JOINT LeftHand
							{
								OFFSET 24.923361 0.898606 -0.117091
								CHANNELS 3 Zrotation Yrotation Xrotation
								End Site
								{
									OFFSET 0.000000 0.000000 0.000000
								}
							}
						}
					}
				}
				JOINT RightShoulder
				{
					OFFSET -8.175920 11.883285 -3.861528
					CHANNELS 3 Zrotation Yrotation Xrotation
					JOINT RightArm
					{
						OFFSET -9.601238 3.255117 -0.914307
						CHANNELS 3 Zrotation Yrotation Xrotation
						JOINT RightForeArm
						{
							OFFSET -25.374195 -1.332924 -2.140099
							CHANNELS 3 Zrotation Yrotation Xrotation
							JOINT RightHand
							{
								OFFSET -25.529810 0.777228 -0.555919
								CHANNELS 3 Zrotation Yrotation Xrotation
								End Site
								{
									OFFSET 0.000000 0.000000 0.000000
								}
							}
						}
					}
				}
			}
		}
	}
}
MOTION
Frames: 10
Frame Time: 0.033333
-7.903442 8.065937 93.919655 63.267969 4.050165 82.496714 14.368931 2.052635 -3.975973 -3.362884 2.716982 44.102821 -10.632357 6.227007 -11.615394 nan nan nan 6.048100 -5.237905 9.062034 4.130514 4.114952 -3.935221 9.940502 6.453740 6.410903 nan nan nan -0.663170 3.786126 9.996043 4.660815 -3.454908 0.562307 2.845392 -0.976185 2.468605 4.285260 -27.420260 -6.281599 11.546196 -26.953256 -8.197282 -19.348950 5.412515 -0.047500 -64.041860 -12.077583 10.707148 8.853033 -33.705671 -12.384766 9.418095 -12.291862 -34.355922 17.840089 -1.918995 -3.908331 60.390147 3.857239 11.653730 -8.004238 32.838681 -2.503863 0.310817 9.637015 -18.263332 
-7.827384 7.987658 93.903770 62.274709 4.033160 82.496481 14.406042 1.833384 -4.189236 -3.061004 2.735274 43.613843 -11.043138 6.248023 -11.601290 nan nan nan 6.125376 -5.022569 9.147400 3.989286 4.507667 -4.063190 9.955916 6.745866 6.590450 nan nan nan -0.597730 3.854462 10.107995 4.603296 -3.354337 0.410555 2.817526 -0.930236 2.481777 4.315624 -27.185892 -6.329265 11.267666 -26.956939 -8.001323 -19.421035 5.695237 -0.252352 -64.044510 -12.246879 10.541814 9.184118 -33.630377 -11.812429 7.697706 -12.727024 -33.684749 17.803233 -1.968977 -3.964495 60.573634 3.902379 11.721542 -8.178986 32.610739 -2.436483 1.064440 9.723638 -18.341077 
-7.753251 7.933939 93.906784 61.346606 4.058081 82.509108 14.508134 1.615116 -4.501850 -2.673325 2.891682 43.212556 -11.185405 6.498182 -11.455794 nan nan nan 6.184370 -4.772774 9.226188 3.927782 4.865674 -4.204769 9.940775 7.004840 6.791040 nan nan nan -0.395055 3.824615 10.237146 4.519690 -3.281979 0.245953 2.692232 -0.909897 2.469548 4.375389 -26.770411 -6.425538 10.936115 -26.971498 -7.721536 -19.565990 5.897530 -0.375054 -63.740121 -12.229277 10.338388 9.758795 -33.668110 -10.395051 4.837270 -13.541808 -32.158324 17.839975 -1.957886 -3.970736 60.722373 3.925308 11.674259 -8.357779 32.421867 -2.318876 2.009082 9.866628 -18.549400 
-7.695655 7.880114 93.927231 60.323535 4.013605 82.526089 14.552028 1.461655 -4.789740 -2.313937 3.085431 42.758268 -11.210549 6.615736 -11.606274 nan nan nan 6.173268 -4.470758 9.243176 3.902732 5.233705 -4.251805 10.099449 7.284560 6.997652 nan nan nan -0.327201 3.875460 10.283895 4.490163 -3.220643 0.251275 2.647399 -0.886723 2.383127 4.381541 -26.273451 -6.527834 10.618560 -27.001566 -7.520597 -19.669225 5.805458 -0.354664 -63.398553 -12.123891 10.232122 10.480040 -33.693566 -9.142220 1.965141 -14.635317 -30.570038 17.880456 -1.955412 -3.898176 60.746337 3.958813 11.536199 -8.478958 32.426159 -1.935869 3.269790 10.049192 -18.764835 
-7.614545 7.805882 93.947098 59.271809 3.962997 82.427928 14.593743 1.407462 -4.836548 -1.897366 3.180146 42.136623 -11.210632 6.633527 -11.917276 nan nan nan 6.171061 -4.238323 9.509036 3.827052 5.688701 -4.491528 10.316255 7.569702 7.203188 nan nan nan -0.380549 3.945494 10.294477 4.505371 -3.219474 0.411771 2.735681 -0.830649 2.305019 4.190769 -25.904889 -6.460998 10.448170 -26.893649 -7.438656 -19.687580 5.416647 -0.176007 -63.285148 -11.961428 10.271776 11.152927 -33.746064 -9.005623 0.423984 -15.323785 -30.054007 17.851159 -1.762793 -3.689890 60.747932 4.055708 11.382193 -8.563962 32.419076 -1.718665 3.901750 10.157207 -18.746411 
-7.540264 7.750552 93.969086 58.266036 3.952570 82.275000 14.648289 1.375380 -4.842348 -1.516606 3.104864 41.477455 -11.279421 6.789657 -11.969486 nan nan nan 6.132244 -4.098512 9.885108 3.819407 6.237580 -4.858920 10.569945 7.843606 7.459498 nan nan nan -0.372545 3.959271 10.466222 4.515787 -3.252878 0.450199 2.812567 -0.732971 2.272416 3.981139 -25.705237 -6.365927 10.370902 -26.710124 -7.364775 -19.691293 5.231053 -0.137627 -63.361590 -11.817381 10.456596 11.350468 -33.943616 -9.374656 0.624778 -15.266239 -30.270373 17.914973 -1.571166 -3.575549 60.626416 4.175810 11.377134 -8.554219 32.302530 -1.740047 3.724211 10.153510 -18.360248 
-7.491385 7.723025 93.984306 57.257881 3.903510 82.220166 14.620484 1.299265 -4.988906 -1.262160 2.965303 40.836489 -11.348305 7.067234 -11.903026 nan nan nan 6.087073 -3.911824 10.003956 3.765171 6.721148 -4.995574 10.711592 8.129536 7.625783 nan nan nan -0.289521 4.012827 10.667516 4.463745 -3.186855 0.414262 2.759776 -0.672827 2.232596 3.914069 -25.408379 -6.383973 10.305157 -26.632705 -7.302381 -19.746427 5.251320 -0.231036 -63.354753 -11.793959 10.510036 11.495930 -34.082426 -9.240530 0.415648 -15.251540 -29.771646 18.063899 -1.596808 -3.684715 60.605351 4.289780 11.360485 -8.719663 32.062332 -1.696567 3.785628 10.164475 -17.688836 
-7.440884 7.692299 93.988823 56.245639 3.896714 82.197957 14.602439 1.278179 -5.149484 -0.911364 2.741684 40.150111 -11.217608 7.326604 -11.926173 nan nan nan 6.105198 -3.684077 10.024299 3.707352 7.189371 -4.995813 10.842010 8.382014 7.749570 nan nan nan -0.169223 4.057792 10.794235 4.428044 -3.074599 0.347251 2.704470 -0.644108 2.308610 3.815561 -25.102256 -6.483007 10.213963 -26.612743 -7.178681 -19.730532 5.313953 -0.345684 -63.415527 -11.823288 10.584548 11.543411 -34.201002 -8.995039 0.495945 -15.261223 -29.309422 18.095999 -1.745041 -3.881688 60.696057 4.388609 11.380406 -8.796468 31.924795 -1.587299 3.695545 10.272682 -17.231942 
-7.364441 7.650773 93.986588 55.297952 3.897136 82.157116 14.597552 1.186983 -5.296392 -0.546848 2.490649 39.505289 -11.023771 7.554327 -11.976747 nan nan nan 6.109821 -3.494274 10.137480 3.655681 7.698792 -5.101265 10.958083 8.583374 7.904803 nan nan nan -0.070898 4.053355 10.795554 4.400074 -3.039538 0.338904 2.686058 -0.636424 2.463531 3.708099 -24.843097 -6.581605 10.065908 -26.467767 -7.032603 -19.688384 5.402075 -0.400109 -63.482038 -11.844875 10.645010 11.373786 -34.444432 -8.997648 0.617107 -15.373182 -29.358350 18.082653 -1.760743 -3.905300 60.690705 4.474136 11.491443 -8.716725 31.942285 -1.612459 3.613006 10.488392 -17.053463 
-7.319171 7.608181 93.987335 54.379172 3.877938 82.138859 14.642814 1.159086 -5.504785 -0.386278 2.143002 38.907144 -10.921006 7.657272 -12.260809 nan nan nan 6.076062 -3.382559 10.234861 3.609217 8.203242 -5.257464 11.132341 8.811213 8.144885 nan nan nan -0.035643 4.058878 10.861359 4.380057 -3.046631 0.373583 2.675864 -0.614875 2.459441 3.628580 -24.536455 -6.595856 10.000063 -26.311309 -7.036445 -19.642146 5.435634 -0.375729 -63.484091 -11.829898 10.644619 11.130947 -34.766496 -9.171201 0.122040 -15.526645 -29.927903 18.196061 -1.763275 -3.917485 60.689440 4.525505 11.527904 -8.787703 32.012921 -1.967535 3.826926 10.499883 -16.944189 
